<?xml version="1.0" standalone="no"?><!DOCTYPE svg PUBLIC "-//W3C//DTD SVG 1.1//EN" "http://www.w3.org/Graphics/SVG/1.1/DTD/svg11.dtd"><svg t="1766654191581" class="icon" viewBox="0 0 1024 1024" version="1.1" xmlns="http://www.w3.org/2000/svg" p-id="3214" xmlns:xlink="http://www.w3.org/1999/xlink" width="200" height="200"><path d="M305.408 964.096l4.608-6.144c24.064-26.624 58.88-41.472 94.72-40.448 37.376 1.536 74.24 19.968 110.592 55.808-26.112 31.744-65.536 49.664-107.008 47.616-39.424 0-76.8-18.944-99.84-51.2-1.024-1.536-3.072-5.632-3.072-5.632z m108.032-94.208c23.552-29.696 58.88-47.104 96.768-47.616 41.984 2.048 81.408 19.968 111.104 49.152-24.576 31.232-62.976 49.152-102.912 48.64-40.448-0.512-78.848-18.944-104.96-50.176z m105.984-80.896c11.776-35.84 39.424-64.512 75.264-77.312 39.936-12.288 83.456-8.704 121.344 9.216-12.8 37.888-42.496 67.584-80.384 80.384-38.912 12.8-80.896 8.192-116.224-12.288z m-86.528-100.352c4.096 48.128-4.608 96.256-25.6 140.288-20.48 41.472-56.32 74.24-99.328 90.624-0.512-53.248 11.264-105.984 33.792-154.112 18.944-36.864 51.712-64.512 91.136-76.8zM501.504 517.12c22.528 38.912 34.816 82.944 34.816 127.488-0.512 49.152-14.848 96.768-41.984 137.728-22.016-46.08-33.792-96.256-34.304-147.456 1.024-42.496 15.36-83.968 41.472-117.76z m118.784 64.512c28.16-20.992 63.488-29.696 98.304-24.064-6.144 37.888-26.112 72.704-55.808 96.768-27.136 22.528-63.488 31.232-97.792 22.528 6.144-37.376 25.6-71.168 55.296-95.232zM538.88 378.368c26.112 29.184 43.008 65.536 49.664 103.936 8.192 39.424 2.048 79.872-16.896 115.2-26.624-30.72-44.032-68.096-50.176-108.544-6.656-37.376-0.512-76.288 17.408-110.592z m178.176 16.384c4.096 37.376-4.096 74.752-23.04 107.008-16.384 29.696-45.056 50.688-78.848 56.32-3.584-37.376 4.608-75.264 24.064-107.52 17.408-27.648 45.568-48.128 77.824-55.808z m-49.664-127.488c11.776 33.792 13.312 70.144 3.584 104.448-7.68 32.256-28.16 59.904-56.32 76.288-11.776-34.304-12.8-71.68-2.56-106.496 8.704-30.208 28.16-56.832 55.296-74.24zM475.904 225.28c31.232 11.264 57.856 32.256 76.288 59.904 20.48 28.672 31.744 62.976 32.256 98.304-32.256-11.776-59.392-33.28-78.336-61.952-19.456-28.672-29.696-61.952-30.208-96.256z m144.896-77.824c14.336 29.184 19.456 62.464 14.336 94.72-3.584 30.72-19.456 59.392-43.52 78.848-14.336-30.208-19.456-64-13.824-96.768 5.12-29.696 20.48-56.832 43.008-76.8zM540.928 74.24c18.944 24.064 30.208 53.76 31.232 84.48 2.56 30.208-6.144 60.416-24.064 84.48-19.456-25.088-30.208-55.296-31.744-87.04-1.024-29.184 7.68-57.856 24.576-81.92zM372.48 129.024c28.672-5.632 57.856-1.536 83.456 12.288 27.136 13.312 49.152 35.84 61.952 63.488-28.672 6.656-58.88 2.56-84.48-11.776-26.624-14.336-48.128-36.864-60.928-64zM450.816 0c22.528 17.408 38.912 41.472 47.104 68.608 9.216 27.136 8.192 56.832-2.56 83.968-23.04-17.92-39.936-42.496-48.128-70.656-7.68-27.136-6.656-55.808 3.584-81.92zM334.08 14.336c56.832 4.608 102.912 47.104 113.664 102.912-27.648-1.536-54.272-13.312-74.24-32.256-20.48-18.944-34.304-43.52-39.424-70.656z" fill="#FFFFFF" p-id="3215"></path></svg>